<?xml version="1.0" encoding="UTF-8" standalone="no" ?>
<!-- Created with Inkscape (http://www.inkscape.org/) -->
<svg
  viewBox="0 0 22.016123 2.999825"
  version="1.1"
  id="svg1"
  sodipodi:docname="en.svg"
  inkscape:version="1.3.2 (091e20ef0f, 2023-11-25, custom)"
  xmlns:inkscape="http://www.inkscape.org/namespaces/inkscape"
  xmlns:sodipodi="http://sodipodi.sourceforge.net/DTD/sodipodi-0.dtd"
  xmlns="http://www.w3.org/2000/svg"
  xmlns:svg="http://www.w3.org/2000/svg"
>
  <sodipodi:namedview
    id="namedview1"
    pagecolor="#ffffff"
    bordercolor="#000000"
    borderopacity="0.25"
    inkscape:showpageshadow="2"
    inkscape:pageopacity="0.0"
    inkscape:pagecheckerboard="0"
    inkscape:deskcolor="#d1d1d1"
    inkscape:document-units="mm"
    inkscape:zoom="43.552172"
    inkscape:cx="8.7251676"
    inkscape:cy="3.5015475"
    inkscape:window-width="2560"
    inkscape:window-height="1011"
    inkscape:window-x="0"
    inkscape:window-y="0"
    inkscape:window-maximized="1"
    inkscape:current-layer="layer1"
  />
  <defs id="defs1" />
  <g id="layer1" transform="translate(-106.63544,-50.738497)">
    <g id="g1" inkscape:label="O1">
      <path
        d="m 108.13561,50.738503 a 1.5,1.5 0 0 0 -1.50017,1.500167 1.5,1.5 0 0 0 1.50017,1.49965 1.5,1.5 0 0 0 1.49965,-1.49965 1.5,1.5 0 0 0 -1.49965,-1.500167 z m 0,0.125057 a 1.375,1.375 0 0 1 1.37511,1.37511 1.375,1.375 0 0 1 -1.37511,1.37511 1.375,1.375 0 0 1 -1.37511,-1.37511 1.375,1.375 0 0 1 1.37511,-1.37511 z"
        id="path1"
      />
      <path
        d="m 108.26035,52.238411 a 0.125,0.125 0 0 1 -0.125,0.125 0.125,0.125 0 0 1 -0.125,-0.125 0.125,0.125 0 0 1 0.125,-0.125 0.125,0.125 0 0 1 0.125,0.125 z"
        id="path2"
      />
    </g>
    <path
      d="m 109.79649,50.738497 v 0.125057 h 1.33119 v 0.125057 h -1.33119 v 0.125057 h 1.33119 v 2.624646 h 0.12505 v -2.624646 h 1.33119 v -0.125057 h -1.33119 v -0.125057 h 1.33119 v -0.125057 z"
      id="path3"
    />
    <path
      d="m 114.13834,50.742114 a 1.5,1.5 0 0 0 -0.95395,0.435633 1.5,1.5 0 0 0 0,2.121317 1.5,1.5 0 0 0 2.12132,0 1.5,1.5 0 0 0 0,-2.121317 1.5,1.5 0 0 0 -1.16737,-0.435633 z m 0.13849,0.12144 a 1.375,1.375 0 0 1 0.94103,0.402559 1.375,1.375 0 0 1 0.0429,1.899109 l -1.94251,-1.942517 a 1.375,1.375 0 0 1 0.95859,-0.359151 z m -1.04438,0.450618 1.93735,1.93735 a 1.375,1.375 0 0 1 -1.89704,-0.04082 1.375,1.375 0 0 1 -0.0403,-1.896526 z"
      id="path4"
    />
    <path
      d="m 116.256,50.7385 v 2.9998 h 0.126 2.373 0.125 v -2.9998 h -0.125 l -1.187,2.1244 -1.186,-2.1244 z m 0.126,0.2563 1.115,1.9963 0.072,0.1281 0.071,-0.1281 1.115,-1.9963 v 2.6185 h -2.374 z"
      id="path5"
    />
    <path
      d="m 119.39172,50.738505 v 0.125057 l 0.6873,1.437122 0.6873,1.437638 0.68678,-1.437638 0.68729,-1.437122 v -0.125057 z m 0.12506,0.125057 h 2.49752 l -0.62735,1.312065 h -1.2423 z m 0.68781,1.437122 h 1.12242 l -0.56069,1.173055 z"
      id="path6"
    />
    <g id="g75" inkscape:label="D">
      <path
        d="M 122.883 50.7385 L 122.883 53.7383 L 123.008 53.7383 L 124.033 53.7383 C 124.862 53.7381 125.533 53.0668 125.533 52.2387 C 125.533 51.4103 124.862 50.7387 124.033 50.7385 L 123.008 50.7385 Z M 123.008 50.8636 L 124.033 50.8636 C 124.793 50.8635 125.409 51.4792 125.409 52.2387 C 125.409 52.9981 124.793 53.6138 124.033 53.6138 L 123.008 53.6138 Z"
        id="path7"
      />
      <path
        d="M 122.757 50.7385 L 122.757 53.7383 L 122.632 53.7383 L 122.632 50.7385 Z"
        id="path8"
      />
    </g>
    <path
      id="rect31-4-22"
      d="m 126.06929,50.738508 v 10e-4 0.125057 1.311031 0.125057 1.312581 0.125057 h 0.12506 1.67638 v -0.0015 c 0.43107,8.4e-5 0.78063,-0.349244 0.78083,-0.780314 6e-5,-0.322469 -0.19497,-0.599181 -0.47387,-0.718303 0.27848,-0.119167 0.47372,-0.395707 0.47387,-0.717786 8e-5,-0.431275 -0.34956,-0.780914 -0.78083,-0.78083 h -1.67638 v -0.001 z m 0.12506,0.126091 h 1.67638 c 0.36221,-8.8e-5 0.65586,0.293564 0.65577,0.655773 -2e-4,0.362005 -0.29377,0.655346 -0.65577,0.655258 h -1.67638 z m 0,1.436088 h 1.67638 c 0.36221,-8.8e-5 0.65586,0.293564 0.65577,0.655774 -2e-4,0.362004 -0.29377,0.655345 -0.65577,0.655257 v 0.0016 h -1.67638 z"
    />
  </g>
</svg>
