<?xml version="1.0" encoding="UTF-8" standalone="no" ?>
<!-- Created with Inkscape (http://www.inkscape.org/) -->
<svg
  viewBox="0 0 15.906546 3.0002611"
  version="1.1"
  id="svg1"
  sodipodi:docname="ja.svg"
  inkscape:version="1.3.2 (091e20ef0f, 2023-11-25, custom)"
  xmlns:inkscape="http://www.inkscape.org/namespaces/inkscape"
  xmlns:sodipodi="http://sodipodi.sourceforge.net/DTD/sodipodi-0.dtd"
  xmlns="http://www.w3.org/2000/svg"
  xmlns:svg="http://www.w3.org/2000/svg"
>
  <sodipodi:namedview
    id="namedview1"
    pagecolor="#ffffff"
    bordercolor="#000000"
    borderopacity="0.25"
    inkscape:showpageshadow="2"
    inkscape:pageopacity="0.0"
    inkscape:pagecheckerboard="0"
    inkscape:deskcolor="#d1d1d1"
    inkscape:document-units="mm"
    inkscape:zoom="41.401328"
    inkscape:cx="6.5698376"
    inkscape:cy="0.30192268"
    inkscape:window-width="2560"
    inkscape:window-height="1011"
    inkscape:window-x="0"
    inkscape:window-y="0"
    inkscape:window-maximized="1"
    inkscape:current-layer="g33"
  />
  <defs id="defs1" />
  <g id="layer1" transform="translate(-92.211901,-126.91909)">
    <g id="g33">
      <path
        id="rect31-6-8-5"
        d="m 95.723358,126.91954 v 2.99981 h 0.12506 2.3735 0.12505 v -2.99981 h -0.12505 l -1.18701,2.12442 -1.18649,-2.12442 z m 0.12506,0.25631 1.11517,1.99626 0.0718,0.12816 0.0713,-0.12816 1.11518,-1.99626 v 2.61845 h -2.3735 z"
        inkscape:label="D"
      />
      <path
        id="rect31-4-2-7-9"
        d="m 98.858608,126.91954 v 0.12505 l 0.6873,1.43713 0.687302,1.43763 0.68678,-1.43763 0.68729,-1.43713 v -0.12505 z m 0.12506,0.12505 h 2.497522 l -0.62735,1.31207 h -1.242302 z m 0.68781,1.43713 h 1.122422 l -0.56069,1.17305 z"
        inkscape:label="A"
      />
      <g id="g75" inkscape:label="D">
        <path
          id="path21-1"
          d="M 102.35 126.92 L 102.35 129.919 L 102.475 129.919 L 103.5 129.919 C 104.329 129.919 105 129.248 105 128.42 C 105 127.591 104.329 126.92 103.5 126.92 L 102.475 126.92 Z M 102.475 127.045 L 103.5 127.045 C 104.26 127.045 104.876 127.66 104.875 128.42 C 104.876 129.179 104.26 129.795 103.5 129.795 L 102.475 129.795 Z"
        />
        <path
          id="rect31-4-2-7-0-2-8"
          d="M 102.224 126.919 L 102.224 129.919 L 102.099 129.919 L 102.099 126.919 Z"
          inkscape:label="rect31-4-2-7-0-2-8"
        />
      </g>
      <path
        id="rect31-4-22"
        d="m 105.53618,126.91954 v 0.001 0.12506 1.31103 0.12506 1.31258 0.12505 h 0.12506 1.67638 v -0.002 c 0.43107,9e-5 0.78063,-0.34924 0.78083,-0.78031 6e-5,-0.32247 -0.19497,-0.59918 -0.47387,-0.7183 0.27848,-0.11917 0.47372,-0.39571 0.47387,-0.71779 8e-5,-0.43127 -0.34956,-0.78091 -0.78083,-0.78083 h -1.67638 v -0.001 z m 0.12506,0.12609 h 1.67638 c 0.36221,-9e-5 0.65586,0.29357 0.65577,0.65577 -2e-4,0.36201 -0.29377,0.65535 -0.65577,0.65526 h -1.67638 z m 0,1.43609 h 1.67638 c 0.36221,-9e-5 0.65586,0.29356 0.65577,0.65577 -2e-4,0.36201 -0.29377,0.65535 -0.65577,0.65526 v 0.002 h -1.67638 z"
        inkscape:label="B"
      />
      <g id="g1" inkscape:label="OTO" transform="translate(4.6726726e-7)">
        <path
          id="path10-8"
          d="m 93.086784,128.04438 v 0.12506 0.74982 h -0.56224 v 0.12506 h 0.56224 v 0.74982 0.12506 h 0.999939 c 0.517667,-5e-5 0.93732,-0.4197 0.93741,-0.93741 -9e-5,-0.51771 -0.419743,-0.93736 -0.93741,-0.93741 z m 0.125057,0.12506 h 0.125056 v 0.74982 h -0.125056 z m 0.250113,0 h 0.624769 c 0.448604,5e-5 0.81227,0.36371 0.812353,0.81235 -8.3e-5,0.44864 -0.363749,0.8123 -0.812353,0.81235 h -0.624769 v -0.74982 h 0.874882 v -0.12506 h -0.874882 z m -0.250113,0.87488 h 0.125056 v 0.74982 h -0.125056 z"
        />
        <path
          id="rect31-6-8-57-7-7-5-2-9-7-7-8"
          d="m 92.211902,127.1695 v 0.12506 h 0.874882 v 0.37465 h -0.874882 v 0.12506 h 2.999816 v -0.12506 h -1.999877 v -0.37465 h 0.928108 l -0.101802,0.37413 h 0.131258 l 0.100252,-0.37413 h 0.942061 v -0.12506 h -0.908471 -0.129191 z"
        />
        <path
          id="rect31-6-8-57-7-7-5-2-9-7-7-8-3"
          d="m 93.336788,126.91964 1.033508,-1.6e-4 -0.0335,0.12506 -1.000007,1.6e-4 z"
        />
        <path
          id="path32"
          d="m 94.5868,128.9818 a 0.0625,0.06260522 0 0 1 -0.0625,0.0626 0.0625,0.06260522 0 0 1 -0.0625,-0.0626 0.0625,0.06260522 0 0 1 0.0625,-0.0626 0.0625,0.06260522 0 0 1 0.0625,0.0626 z"
        />
        <path
          id="path32-5"
          d="m 93.2118,126.98217 a 0.0625,0.06260522 0 0 1 -0.0625,0.0626 0.0625,0.06260522 0 0 1 -0.0625,-0.0626 0.0625,0.06260522 0 0 1 0.0625,-0.0626 0.0625,0.06260522 0 0 1 0.0625,0.0626 z"
        />
      </g>
    </g>
  </g>
</svg>
