<?xml version="1.0" encoding="UTF-8" standalone="no"?>
<!-- Created with Inkscape (http://www.inkscape.org/) -->
<svg sodipodi:docname="drawing.svg" inkscape:version="1.2.2 (b0a8486541, 2022-12-01)" id="svg5" version="1.1" viewBox="0 0 106.91436 34.101849"
  xmlns:inkscape="http://www.inkscape.org/namespaces/inkscape"
  xmlns:sodipodi="http://sodipodi.sourceforge.net/DTD/sodipodi-0.dtd"
  xmlns="http://www.w3.org/2000/svg"
  xmlns:svg="http://www.w3.org/2000/svg">
  <sodipodi:namedview id="namedview7" pagecolor="#ffffff" bordercolor="#000000" borderopacity="0.25" inkscape:showpageshadow="2" inkscape:pageopacity="0.0" inkscape:pagecheckerboard="0" inkscape:deskcolor="#d1d1d1" inkscape:document-units="mm" showgrid="false" inkscape:zoom="2.0384476" inkscape:cx="363.26664" inkscape:cy="340.94573" inkscape:window-width="2560" inkscape:window-height="1011" inkscape:window-x="0" inkscape:window-y="0" inkscape:window-maximized="1" inkscape:current-layer="layer1" />
  <defs id="defs2" />
  <g inkscape:label="Layer 1" inkscape:groupmode="layer" id="layer1" transform="translate(-70.775858,-20.035203)">
    <g id="g666">
      <g aria-label="B" id="text445" style="font-size:25.1871px;font-family:tagDo;-inkscape-font-specification:'tagDo, Normal';white-space:pre;stroke-width:1.21353">
        <path d="m 160.61019,32.880295 q -0.65486,-0.302245 -0.90673,-0.7808 -0.25187,-0.478555 -0.15113,-0.957109 0.10075,-0.478555 0.52893,-0.831175 0.45337,-0.352619 1.15861,-0.377806 1.18379,0.226684 2.36759,0.377806 0.50374,-0.60449 1.23416,-0.528929 0.75562,0.05037 1.1838,0.831174 1.81347,0.277059 3.55138,0.730426 1.73791,0.453368 3.29951,1.460852 0.80599,0.528929 1.5616,1.183794 0.75561,0.629677 1.28454,1.460852 0.42818,0.705238 0.70524,1.637161 0.30225,0.906736 0.25187,1.788284 -0.0252,0.881549 -0.47855,1.637162 -0.42818,0.730425 -1.41048,1.083045 -0.35262,0.125935 -0.73043,0.226684 -0.35262,0.100748 -0.70524,0.176309 l 0.68006,0.226684 q 0.50374,0.151123 1.05785,0.35262 0.55412,0.201496 1.05786,0.478555 0.50374,0.277058 0.88155,0.680051 0.40299,0.377807 0.5793,0.931923 0.12594,0.352619 0.0504,0.60449 -0.0504,0.226684 -0.27706,0.503742 -0.17631,0.201497 -0.35262,0.377807 -0.15112,0.176309 -0.35262,0.352619 -0.37781,0.35262 -1.25935,0.629678 -0.88155,0.277058 -1.91422,0.503742 -1.03267,0.226684 -2.01497,0.377806 -0.9823,0.151123 -1.51123,0.226684 -2.54389,0.377807 -5.0626,0.554116 -2.49353,0.17631 -5.06261,0.302245 -0.62968,0.02519 -1.28454,0.07556 -0.62968,0.05037 -1.25936,0.07556 -0.65486,0.02519 -1.28454,0.02519 -0.62968,0 -1.25936,-0.100748 -0.68005,-0.125936 -0.9571,-0.579304 -0.30225,-0.453367 -0.22669,-1.007484 0.0504,-0.554116 0.45337,-1.057858 0.37781,-0.503742 1.03267,-0.730426 0.93192,-0.02519 1.43566,0.503742 0.42819,0.02519 0.85637,0.05037 0.42818,0 0.85636,0 0.10075,0 0.17631,0.02519 0.0756,0 0.17631,0 -0.0504,-0.251871 -0.0756,-0.478555 0,-0.226684 -0.0504,-0.478555 0.17631,-0.805987 0.70524,-1.158607 0.52893,-0.352619 1.10823,-0.226684 0.73043,-1.309729 1.28454,-2.569084 0.55412,-1.284542 0.93193,-2.569084 0.3778,-1.309729 0.55411,-2.695019 0.2015,-1.410478 0.22669,-2.972078 -0.65487,-0.07556 -1.33492,-0.151123 -0.65486,-0.100748 -1.30973,-0.201497 z m 3.04764,7.682066 q -0.50374,1.460851 -0.9823,2.921703 -0.45336,1.460852 -0.95711,2.921704 h 0.88155 q 2.39278,0.05037 4.78555,-0.07556 2.39278,-0.125935 4.76036,-0.503742 0.9823,-0.151122 1.81347,-0.302245 0.85637,-0.176309 1.61198,-0.680051 -0.40299,-0.402994 -1.03267,-0.604491 -0.62968,-0.226684 -1.10823,-0.42818 -1.46086,-0.52893 -2.99727,-1.007484 -1.53641,-0.478555 -3.09801,-0.654865 -0.32743,-0.02519 -0.65487,-0.02519 -0.30224,-0.02519 -0.60449,-0.05037 h -0.0252 q -0.403,-0.05038 -0.60449,-0.277058 -0.2015,-0.226684 -0.2015,-0.503742 0,-0.277059 0.17631,-0.503742 0.17631,-0.251871 0.55411,-0.302246 v -0.02519 q 1.51123,0.02519 2.99727,0.05037 1.48604,0.02519 2.99726,-0.17631 0.55412,-0.07556 1.05786,-0.151123 0.50374,-0.07556 0.88155,-0.251871 0.37781,-0.176309 0.5793,-0.528929 0.2015,-0.352619 0.15113,-0.95711 -0.32744,-1.360103 -1.15861,-2.241651 -0.80599,-0.906736 -1.93941,-1.460852 -1.10823,-0.554116 -2.39277,-0.831175 -1.28454,-0.302245 -2.51871,-0.478554 -0.2015,0 -0.37781,0 -0.17631,0 -0.3778,-0.02519 -0.0756,0.428181 -0.17631,0.881549 -0.0756,0.428181 -0.2015,0.906736 -0.37781,1.38529 -0.88155,2.695019 -0.50374,1.309729 -0.95711,2.669833 z m 2.21647,-7.203511 v -0.02519 q 0.25187,0.05037 0.40299,0.05037 -0.12594,0 -0.22668,0 -0.10075,-0.02519 -0.17631,-0.02519 z" id="path631" />
      </g>
      <g aria-label="D" id="text449" style="font-size:25.7086px;font-family:tagDo;-inkscape-font-specification:'tagDo, Normal';white-space:pre;stroke-width:1.28989">
        <path d="m 139.52769,23.263501 q -0.51417,-0.514172 -0.59129,-1.054052 -0.0771,-0.565589 0.15425,-0.976927 0.25708,-0.437046 0.79696,-0.617006 0.53989,-0.205669 1.23402,0 1.72247,1.028344 3.23928,2.262356 1.54252,1.208304 3.11074,2.493734 0.15425,0.154252 0.33421,0.282795 0.17996,0.128543 0.35992,0.257086 0.77126,0.128543 1.20831,0.976927 1.23401,0.899801 2.46802,1.851019 1.25972,0.951218 2.33949,2.030979 1.07976,1.079761 1.90243,2.339483 0.84839,1.259721 1.31114,2.802237 0.23138,0.796967 0.51417,1.64535 0.2828,0.822676 0.0514,1.671059 -0.15425,0.539881 -0.51417,1.054053 -0.35992,0.488463 -0.79697,0.925509 -0.43704,0.462755 -0.8998,0.899801 -0.43705,0.437047 -0.79697,0.848384 -0.74555,0.848384 -1.54251,1.516808 -0.77126,0.668423 -1.7996,1.028343 -0.35992,0.514172 -0.95122,0.591298 -0.5913,0.07713 -1.07976,-0.282794 -0.5913,0.02571 -1.20831,0.07713 -0.5913,0.05142 -1.15688,0.282795 -0.5913,0.231377 -1.05406,0.565589 -0.43704,0.359921 -1.10547,0.462755 -0.617,-0.102834 -0.95122,-0.334212 -0.3085,-0.231377 -0.59129,-0.771258 0,-0.05142 -0.0257,-0.07713 0,0 0,-0.02571 -0.12854,-0.951218 0.33421,-1.491099 0.46276,-0.514172 1.13118,-0.488463 0.0771,-0.05142 0.23138,-0.102835 0.28279,-0.154251 0.56559,-0.308503 0.3085,-0.128543 0.64271,-0.205669 1.07976,-0.282794 2.36519,-0.231377 -0.0514,-0.231377 -0.10283,-0.462755 -0.0257,-0.205669 -0.0771,-0.411337 -0.20567,-1.002636 -0.23138,-2.03098 -0.0257,-1.054052 0.0257,-2.082396 0.0257,-0.899801 0,-1.722476 0,-0.822676 -0.12854,-1.722477 -0.56559,-1.773893 -1.05405,-3.547786 -0.46276,-1.773894 -0.74555,-3.624913 -1.72248,-1.131178 -3.39354,-2.262356 -1.67106,-1.131179 -3.52208,-2.03098 z m 13.49702,8.81805 q -0.82268,-0.74555 -1.72248,-1.362556 -0.8998,-0.642715 -1.82531,-1.234013 0.0514,0.951218 0.15425,1.902437 0.10284,0.925509 0.23138,1.876727 0.0771,0.848384 0.0771,1.696768 0.0257,0.848384 0.12854,1.696767 0.0771,0.74555 0.12854,1.465391 0.0771,0.694132 0.17996,1.388264 0.0514,0.437046 0.10284,0.719841 0.0771,0.282794 0.20567,0.668423 h 0.0257 q 0.12855,-0.05142 0.12855,0.154252 0.0257,0.205669 0.0771,0.334212 0.15426,0.385629 0.33422,0.771258 0.17996,0.385629 0.33421,0.796966 h 0.0257 q 0.12854,-0.07713 0.23137,-0.231377 0.12855,-0.128543 0.25709,-0.07713 0.46275,-0.385629 1.15689,-1.002635 0.69413,-0.617007 1.33684,-1.259722 0.66843,-0.642715 1.13118,-1.182595 0.48847,-0.539881 0.51417,-0.719841 0.10284,-0.796967 -0.17996,-1.696768 -0.28279,-0.925509 -0.77125,-1.799602 -0.46276,-0.874092 -1.07977,-1.64535 -0.617,-0.771258 -1.18259,-1.259721 z m -2.15952,9.332221 q 0,-0.07713 -0.10284,-0.231377 0.0514,0.128543 0.0771,0.205669 0.0257,0.102834 0.0257,0.02571 z m -6.24719,2.827946 q 0,-0.02571 0.0257,-0.02571 -0.0514,0.02571 -0.10284,0.02571 -0.0514,0 -0.10283,0.05142 -0.0514,0.02571 0.0257,0 0.10283,-0.02571 0.15425,-0.05142 z m 3.54778,-10.077771 q -0.0257,-0.07713 0,0.07713 0.0257,0.128543 0.0514,0.282795 0,-0.102835 -0.0514,-0.359921 z" id="path634" />
      </g>
      <g aria-label="a" id="text453" style="font-size:25.7086px;font-family:tagDo;-inkscape-font-specification:'tagDo, Normal';white-space:pre;stroke-width:1.2127">
        <path d="m 136.56668,25.39251 q 0.84838,-0.05142 1.31114,0.411337 0.48846,0.437046 0.51417,1.028344 0.617,0.154252 1.13118,0.565589 0.53988,0.385629 0.87409,0.92551 0.35992,0.539881 0.48846,1.182596 0.15425,0.642715 0,1.28543 -0.0514,0.205668 -0.10283,0.308503 0.35992,0.53988 0.71984,1.079761 0.38563,0.514172 0.79696,1.028344 0,0 0.0257,0.02571 0.5913,0.539881 1.10547,1.182596 0.51418,0.642715 1.10547,1.208304 0.0771,0.05142 0.15425,0.128543 0.0771,0.07713 0.15426,0.154252 0.35992,-0.128543 0.71984,-0.07713 0.35992,0.07713 0.64271,0.308503 0.3085,0.231378 0.46276,0.617007 0.17996,0.385629 0.15425,0.925509 -0.2828,0.848384 -0.79697,1.156887 -0.51417,0.308503 -1.10547,0.231377 -0.56559,-0.07713 -1.18259,-0.437046 -0.5913,-0.35992 -1.05406,-0.822675 -1.05405,-1.054052 -1.90243,-2.262357 -0.82268,-1.208304 -1.4911,-2.493734 -0.48846,0.359921 -1.02835,0.617007 -0.53988,0.231377 -1.07976,0.385629 -1.59393,0.437046 -3.26499,0.385629 -0.51417,0 -1.07976,-0.05142 -0.53988,-0.07712 -1.05405,-0.205668 -1.31114,-0.359921 -1.59394,-1.259722 -0.25708,-0.925509 0.41134,-2.056688 0.51417,-0.899801 1.13118,-1.748184 0.61701,-0.848384 1.33685,-1.542516 0.74555,-0.719841 1.61964,-1.28543 0.87409,-0.565589 1.87673,-0.899801 z m 1.41397,5.218845 q -0.23138,-0.334211 -0.64271,-0.874092 -0.41134,-0.565589 -0.66843,-1.156887 -0.82267,0.308503 -1.4911,0.848384 -0.66842,0.514172 -1.33684,1.182595 -0.38563,0.359921 -0.71985,0.74555 -0.33421,0.385629 -0.617,0.822675 0.53988,0.205669 1.33685,0.308503 0.79696,0.07713 1.64535,0.02571 0.84838,-0.05142 1.64535,-0.257086 0.82267,-0.231378 1.38826,-0.642715 -0.23138,-0.514172 -0.53988,-1.002637 z" id="path637" />
      </g>
      <g aria-label="M" id="text457" style="font-size:25.7086px;font-family:tagDo;-inkscape-font-specification:'tagDo, Normal';white-space:pre;stroke-width:1.2127">
        <path d="m 116.8147,40.990925 q -0.30851,0.796967 -0.87409,1.054053 -0.56559,0.282794 -1.07977,0.128543 -0.51417,-0.154252 -0.82267,-0.694132 -0.33421,-0.539881 -0.17996,-1.362556 0.64271,-1.979562 1.41397,-3.881999 0.74555,-1.902436 1.43968,-3.856289 0.5913,-1.619642 1.05406,-3.239284 0.46275,-1.619642 1.05405,-3.239283 0.20567,-0.617007 0.53988,-1.156887 0.35992,-0.56559 0.56559,-1.208305 0,-0.257086 0.12854,-0.514172 0.23138,-0.385629 0.53988,-0.53988 0.3085,-0.154252 0.61701,-0.102835 0.3085,0.02571 0.56559,0.257086 0.28279,0.231378 0.41133,0.642715 0.10284,0.437047 0.0771,0.848384 0,0.385629 -0.0514,0.822675 -0.0771,0.56559 -0.10283,0.822676 -0.0257,0.257086 -0.0257,0.231377 -0.0257,0.411338 -0.0514,0.822675 0,0.385629 -0.0257,0.745549 l -0.23137,3.547787 v -0.102834 q -0.0514,1.002635 -0.0771,2.00527 -0.0257,1.002636 0.0514,1.979563 0,0.462754 0.0771,0.899801 0.0514,-0.128543 0.12855,-0.257086 0.0771,-0.154252 0.15425,-0.308504 0.15425,-0.385629 0.3085,-0.771258 0.17996,-0.385629 0.30851,-0.796966 0.12854,-0.359921 0.23137,-0.74555 0.10284,-0.385629 0.20567,-0.796966 0.2828,-1.079761 0.46276,-2.185231 0.17996,-1.10547 0.38563,-2.236648 0.28279,-1.696768 0.56558,-3.419244 0.30851,-1.722476 0.66843,-3.444952 0.0771,-0.385629 0.28279,-0.591298 0.23138,-0.231377 0.48847,-0.282794 0.28279,-0.07713 0.56559,0.05142 0.3085,0.128543 0.53988,0.437046 0.35992,1.311138 0.33421,2.57086 0,1.259721 0.0514,2.596568 0.0514,1.362556 0.15426,2.725112 0.10283,1.336847 0.25708,2.673694 0.17996,1.825311 0.41134,3.650621 0.25709,1.799602 0.48846,3.624913 0.25709,1.799602 0.46276,3.624912 0.20567,1.825311 0.3085,3.67633 -0.0514,0.848384 -0.51417,1.28543 -0.43705,0.437046 -0.97693,0.437046 -0.53988,0.02571 -1.02834,-0.385629 -0.46276,-0.385629 -0.56559,-1.208304 0,-1.825311 -0.12854,-3.650621 -0.10284,-1.825311 -0.25709,-3.650621 -0.15425,-1.825311 -0.3085,-3.650621 -0.15425,-1.825311 -0.25709,-3.650621 -0.0514,-0.462755 -0.0771,-0.92551 0,-0.462755 -0.0257,-0.92551 -0.25709,1.234013 -0.56559,2.468026 -0.2828,1.208304 -0.66843,2.3909 -0.3085,0.899801 -0.66842,1.799602 -0.17996,0.385629 -0.35992,0.771258 -0.17996,0.385629 -0.33421,0.745549 0,0.02571 -0.0257,0.02571 0,0.05142 -0.0257,0.07712 0,0.02571 0,0.05142 -0.0514,0.128543 -0.10283,0.257086 -0.0257,0.128543 -0.0771,0.257085 -0.12854,0.334212 -0.38563,0.539881 -0.25708,0.205669 -0.617,0.205669 -0.43705,0 -0.71985,-0.257086 -0.25708,-0.282795 -0.41133,-0.668424 -0.15425,-0.385629 -0.23138,-0.796966 -0.0514,-0.437046 -0.10283,-0.719841 -0.20567,-1.388264 -0.25709,-2.725112 -0.0514,-1.362555 -0.0257,-2.75082 -0.12854,0.514172 -0.28279,1.054053 -0.15426,0.53988 -0.30851,1.054052 -0.617,1.979563 -1.28543,3.907708 -0.66842,1.928144 -1.18259,3.933415 z m 5.01317,-10.849029 q 0,0.128543 -0.0257,0.257086 0,-0.05142 0,-0.102834 0.0257,-0.07713 0.0257,-0.154252 z m 1.02835,7.404077 -0.0257,0.02571 z" id="path640" />
      </g>
      <g aria-label="o" id="text461" style="font-size:25.7086px;font-family:tagDo;-inkscape-font-specification:'tagDo, Normal';white-space:pre;stroke-width:1.2127">
        <path d="m 104.71316,49.153867 q -0.35992,-0.694133 -0.12854,-1.491099 0.23138,-0.822675 0.77126,-1.593933 0.53988,-0.771258 1.23401,-1.439682 0.69413,-0.668423 1.25972,-1.079761 -0.0771,-0.334212 -0.0257,-0.642715 0.0771,-0.334212 0.2828,-0.591298 0.23138,-0.257086 0.5913,-0.437046 0.35992,-0.17996 0.84838,-0.205669 0.25709,0.07713 0.66842,0.205669 0.43705,0.102834 0.95122,0.231377 0.69413,0 1.15689,0.334212 0.8998,0.257086 1.82531,0.565589 0.95122,0.308504 1.74818,0.668424 0.82268,0.334212 1.41398,0.719841 0.617,0.385629 0.79696,0.771258 0.2828,0.565589 0.20567,1.079761 -0.0771,0.488463 -0.38563,0.899801 -0.28279,0.411337 -0.74555,0.745549 -0.43704,0.334212 -0.8998,0.565589 -1.90243,0.976927 -3.882,1.671059 -1.95385,0.694132 -4.06195,0.694132 -0.35992,0.02571 -0.77126,0.02571 -0.38563,0.02571 -0.71984,-0.102834 -0.38563,-0.128543 -0.77126,-0.231378 -0.38563,-0.102834 -0.69413,-0.334212 -0.25709,-0.17996 -0.41134,-0.462754 -0.12854,-0.282795 -0.25709,-0.565589 z m 11.41462,-2.930781 q -0.5913,-0.35992 -1.7996,-0.642715 -1.2083,-0.282794 -2.51944,-0.488463 -0.20567,0.05142 -0.33421,0.07713 -1.23402,0.154251 -2.26236,0.694132 -1.00264,0.53988 -1.82531,1.439681 -0.33421,0.334212 -0.56559,0.74555 -0.23138,0.411337 -0.0514,0.514172 0.35992,0.231377 0.74555,0.308503 0.38563,0.07713 0.77126,0.102834 0.38563,0.02571 0.79697,0.02571 0.41133,0 0.82267,0.05142 0.0514,0 -0.0257,0 -0.0771,0 -0.17996,0 -0.10283,0 -0.17996,0 -0.0771,0 -0.0257,0.02571 0.33421,0.102834 0.8741,0 0.56558,-0.102835 1.23401,-0.334212 0.66842,-0.257086 1.36255,-0.591298 0.71984,-0.35992 1.33685,-0.719841 0.64272,-0.35992 1.13118,-0.668423 0.48846,-0.334212 0.69413,-0.539881 z" id="path643" />
      </g>
      <g aria-label="t" id="text465" style="font-size:25.7086px;font-family:tagDo;-inkscape-font-specification:'tagDo, Normal';white-space:pre;stroke-width:1.2127">
        <path d="m 99.36818,41.024594 q -0.848384,-0.102835 -1.234013,-0.565589 -0.411337,-0.488464 -0.385629,-1.028344 0.02571,-0.539881 0.462755,-0.976927 0.437046,-0.462755 1.28543,-0.514172 0.514177,0.07713 1.028347,0.102834 0.53988,0.02571 1.05405,0.205669 0.0771,0.02571 -0.0514,0.02571 -0.12854,0 -0.3085,-0.02571 -0.17996,-0.02571 -0.33421,-0.02571 -0.12855,-0.02571 -0.0257,0 0.69413,0.17996 1.4911,0.257086 0.82267,0.05142 1.67106,0 0.95121,-1.568225 1.7996,-3.162158 0.87409,-1.593933 1.74818,-3.213575 l -0.0514,0.05142 q -0.0514,0.07713 0.0257,-0.102834 0.0771,-0.17996 0.12855,-0.282795 0.43704,-0.719841 1.02834,-0.874092 0.5913,-0.17996 1.07976,0.05142 0.48847,0.231377 0.71984,0.822675 0.25709,0.565589 -0.0514,1.336847 -0.82268,1.311139 -1.74819,2.545152 -0.8998,1.234012 -1.87673,2.442317 0.97693,-0.205669 1.87673,-0.514172 0.8998,-0.308504 1.67106,-0.719841 0.71984,-0.02571 1.1826,0.308503 0.46275,0.308503 0.59129,0.771258 0.15426,0.462755 -0.0771,1.002635 -0.20567,0.514172 -0.82268,0.874093 -1.4911,0.257086 -2.95649,0.17996 -1.46539,-0.102835 -2.98219,-0.05142 -1.00264,1.259721 -1.97957,2.519442 -0.95121,1.259722 -1.85101,2.57086 -0.89981,1.311139 -1.773898,2.622277 -0.848384,1.311139 -1.722476,2.647986 -0.514172,0.822675 -1.002636,1.799602 -0.514172,1.002635 -1.208304,1.722476 -0.745549,0.437046 -1.388264,0.257086 -0.642715,-0.17996 -1.028344,-0.976927 -0.128543,-0.437046 -0.05142,-0.796966 0.07712,-0.359921 0.231377,-0.74555 0.385629,-0.642715 0.92551,-0.848383 0.128543,-0.179961 0.282794,-0.359921 0.128543,-0.17996 0.257086,-0.334212 1.002636,-1.156886 2.005271,-2.313773 1.002635,-1.156887 1.979562,-2.365192 0.514172,-0.668423 1.079762,-1.311138 0.56559,-0.642715 1.07976,-1.336847 0.43705,-0.591298 0.84839,-1.182596 0.43704,-0.617006 0.87409,-1.234013 -0.8998,0.179961 -1.77389,0.385629 -0.8741,0.205669 -1.722483,0.359921 z" id="path646" />
      </g>
      <g aria-label="O" id="text1065" style="font-size:30.8044px;font-family:tagDo;-inkscape-font-specification:'tagDo, Normal';white-space:pre;stroke-width:1.45307">
        <path d="m 77.053351,43.029015 q -0.431261,-1.447807 -0.123217,-3.049636 0.308044,-1.601829 1.139763,-3.172853 0.862523,-1.571024 2.125503,-3.018831 1.293785,-1.447807 2.803201,-2.618374 1.509415,-1.170567 3.172853,-1.940677 1.694242,-0.800915 3.29607,-1.016546 -1.571024,-0.462066 -3.357679,-0.77011 -1.786655,-0.338848 -3.57331,-0.431261 -1.755851,-0.09241 -3.450093,0.09241 -1.694242,0.184826 -3.08044,0.708501 -0.739306,0.27724 -1.386198,0.739306 -0.646892,0.462066 -1.324589,0.893327 -0.862523,0.184827 -1.478611,-0.09241 -0.616088,-0.308044 -0.862524,-0.831719 -0.277239,-0.523674 -0.123217,-1.170567 0.154022,-0.677697 0.831719,-1.232176 0.831718,-0.431261 1.632633,-0.954936 0.77011,-0.554479 1.663437,-0.708501 4.651465,-0.800915 9.179711,-0.27724 4.559051,0.492871 8.840863,2.618374 1.232176,0.616088 2.464352,1.478611 1.26298,0.862523 2.187112,2.002286 0.924132,1.108959 1.293785,2.464352 0.400457,1.355394 -0.06161,2.926418 -0.585283,1.971482 -1.879068,3.881354 -1.293785,1.909873 -3.018831,3.511702 -1.694242,1.571024 -3.696528,2.741592 -1.971482,1.139762 -3.973768,1.632633 -1.293784,0.308044 -2.741591,0.184826 -1.447807,-0.123217 -2.772396,-0.677697 -1.293785,-0.554479 -2.31033,-1.509415 -0.985741,-0.985741 -1.417002,-2.402743 z M 96.614145,32.925172 q -0.338848,-0.862524 -1.108958,-1.54022 -0.739306,-0.708502 -1.601829,-1.232176 0.06161,0.800914 -0.585284,1.386198 -0.616088,0.554479 -1.75585,0.400457 -0.123218,-0.0308 -0.431262,-0.09241 -0.27724,-0.06161 -0.246435,-0.06161 -1.940677,-0.06161 -3.696528,0.739305 -1.725046,0.77011 -3.203658,1.909873 -0.616088,0.462066 -1.139762,0.985741 -0.523675,0.49287 -1.04735,1.016545 -1.355394,1.478611 -1.940677,2.988027 -0.585284,1.509415 -0.338849,2.8032 0.27724,1.262981 1.386198,2.125504 1.139763,0.862523 3.234462,1.047349 0.924132,0.09241 2.0947,-0.184826 1.170567,-0.27724 2.310329,-0.77011 1.170568,-0.523675 2.187113,-1.170567 1.016545,-0.646893 1.663437,-1.293785 1.54022,-1.478611 2.710788,-3.326875 0.21563,-0.338849 0.462066,-0.739306 0.277239,-0.431261 0.523674,-0.862523 0.27724,-0.462066 0.431262,-0.924132 0.184826,-0.462066 0.215631,-0.862523 0.0308,-0.585284 0.06161,-1.170567 0.0308,-0.616088 -0.184827,-1.170567 z" id="path649" />
      </g>
    </g>
  </g>
</svg>
